<svg xmlns="http://www.w3.org/2000/svg" viewBox="0 0 240 234" width="240" height="234">
  <defs>
    <style>
      .a{fill:#330000;}.b{fill:#ff9a00;}
    </style>
  </defs>
  <path class="a" d="M42.5,0h155C221,0,240,19,240,42.5v149c0,23.5-19,42.5-42.5,42.5h-155C19,234,0,215,0,191.5v-149C0,19,19,0,42.5,0Z"/>
  <path class="b" d="M116,140H78l-8,24c0,1-1,1-2,1H55c-1,0-1-1-1-1l33-97c0-1,1-2,1-3c0-1,1-2,1-4c0,0,0-1,1-1h17c1,0,1,0,1,1l37,104c0,1,0,1-1,1h-14c-1,0-2,0-2-1Zm-32-14h26c0-1-1-3-1-3l-12-39h0l-13,42Z"/>
  <path class="b" d="M170,60c0-1,0-1,1-1h13c1,0,1,0,1,1v77c0,1,0,1,1,1h38c1,0,1,0,1,1v11c0,1,0,1-1,1h-53c-1,0-1,0-1-1Z"/>
</svg>

